<?xml version="1.0" encoding="UTF-8"?>
<!-- Generator: visioncortex VTracer -->
<svg id="svg" version="1.1" xmlns="http://www.w3.org/2000/svg" style="display: block;" viewBox="0 0 1024 1024"><path d="M0 0 C337.92 0 675.84 0 1024 0 C1024 337.92 1024 675.84 1024 1024 C686.08 1024 348.16 1024 0 1024 C0 686.08 0 348.16 0 0 Z " transform="translate(0,0)" style="fill: #FEFEFE;"/><path d="M0 0 C13.52687676 9.85968777 22.75885617 22.47633641 25.98435974 39.03057861 C26.62953147 43.19520188 26.65429421 47.27453637 26.6015625 51.48046875 C26.59731766 52.79100723 26.59731766 52.79100723 26.59298706 54.12802124 C26.58192303 56.87846439 26.55684581 59.62856399 26.53125 62.37890625 C26.52120234 64.26041192 26.51207964 66.14192276 26.50390625 68.0234375 C26.48202912 72.60038982 26.44759719 77.1770901 26.40625 81.75390625 C27.20724121 81.54096924 28.00823242 81.32803223 28.83349609 81.10864258 C30.42798584 80.69521606 30.42798584 80.69521606 32.0546875 80.2734375 C33.62742432 79.86121948 33.62742432 79.86121948 35.23193359 79.44067383 C48.69140567 76.52869914 62.53462396 80.4511797 74.14453125 87.390625 C87.34316992 96.30321105 96.59531883 108.4647405 99.93882751 124.27175903 C100.55785547 128.88331829 100.58371239 133.42551899 100.61157227 138.07373047 C100.62147186 139.09873154 100.63137146 140.1237326 100.64157104 141.17979431 C100.67307071 144.55603757 100.69789781 147.93229489 100.72265625 151.30859375 C100.74323573 153.65414793 100.76423247 155.99969849 100.78562927 158.34524536 C100.84074719 164.51010191 100.89020175 170.67499136 100.93847656 176.83990479 C100.98876672 183.13418496 101.04441353 189.42841752 101.09960938 195.72265625 C101.20706519 208.06636555 101.308538 220.41011624 101.40625 232.75390625 C101.94708725 232.34199036 102.4879245 231.93007446 103.04515076 231.50567627 C103.75913528 230.96529724 104.47311981 230.42491821 105.20874023 229.86816406 C105.91457748 229.33249817 106.62041473 228.79683228 107.34764099 228.24493408 C109.9336185 226.37193906 112.60329176 224.90771083 115.46875 223.50390625 C116.90927734 222.78460938 116.90927734 222.78460938 118.37890625 222.05078125 C129.99964239 217.07260783 146.45866296 216.14010872 158.34375 220.87890625 C161.03515625 222.26953125 161.03515625 222.26953125 163.40625 223.75390625 C164.15777344 224.223125 164.90929687 224.69234375 165.68359375 225.17578125 C174.07725369 230.99038366 179.80188293 238.90783838 183.0234375 248.61328125 C185.07735008 260.09842506 183.39569985 271.00246222 176.84375 280.69140625 C169.32874306 292.3121343 171.01700339 307.01921475 171.11328125 320.23828125 C171.11888511 322.50799274 171.12315147 324.77770788 171.12614441 327.04742432 C171.13753098 332.98545569 171.16694432 338.92326261 171.20025635 344.86120605 C171.23109134 350.93478358 171.24467831 357.00839781 171.25976562 363.08203125 C171.29182043 374.9727542 171.34294107 386.86331147 171.40625 398.75390625 C172.12938889 399.16967926 172.85252777 399.58545227 173.59757996 400.01382446 C176.3449903 401.59417011 179.09182413 403.17551232 181.83830261 404.75747681 C183.58574516 405.76361918 185.33381783 406.76866693 187.08190918 407.77368164 C194.67493064 412.14840628 202.21578284 416.6015724 209.71875 421.12890625 C210.35170486 421.5101767 210.98465973 421.89144714 211.63679504 422.28427124 C213.06680248 423.14597253 214.49631465 424.00849558 215.92578125 424.87109375 C222.88616797 429.05565646 229.89380252 433.15748138 236.90625 437.25390625 C245.94015747 442.53208078 254.94427198 447.85403452 263.90625 453.25390625 C272.78920358 458.60383467 281.70776089 463.88962923 290.65625 469.12890625 C291.25614746 469.48041748 291.85604492 469.83192871 292.47412109 470.1940918 C298.73216032 473.86071478 304.99512704 477.51855483 311.27093506 481.1546936 C313.86239837 482.65705597 316.4515123 484.16344077 319.04040527 485.67022705 C320.25611269 486.37630769 321.47293896 487.08046653 322.69104004 487.78240967 C341.56284409 498.65835019 356.15417904 508.76622036 363.58203125 530.13671875 C364.5401453 534.34152257 364.75076756 538.2071494 364.71875 542.50390625 C364.71029053 543.6952417 364.71029053 543.6952417 364.70166016 544.91064453 C364.39375741 559.88203459 358.03644973 572.47118704 348.40625 583.75390625 C349.12071289 584.02396484 349.83517578 584.29402344 350.57128906 584.57226562 C353.43488414 585.76584125 356.06093893 587.14217148 358.765625 588.66015625 C359.79034912 589.23403076 360.81507324 589.80790527 361.87084961 590.39916992 C362.95503174 591.01123291 364.03921387 591.6232959 365.15625 592.25390625 C366.27717041 592.88466064 367.39809082 593.51541504 368.55297852 594.1652832 C376.86816314 598.8569247 385.14405705 603.60623 393.33203125 608.51660156 C395.57823813 609.85649992 397.83589375 611.17593148 400.09375 612.49609375 C417.1388792 622.5560861 430.45346303 633.90161869 436.5546875 653.4296875 C440.30501474 669.61834391 437.93876891 686.75504976 429.34375 700.81640625 C427.14718644 704.22719305 424.88088651 707.53919152 422.40625 710.75390625 C423.0353125 711.27597656 423.664375 711.79804687 424.3125 712.3359375 C436.41774619 722.74571999 445.10328075 735.65815377 447.40625 751.75390625 C448.727181 771.95765421 444.02157823 789.97134705 430.78125 805.62890625 C418.18990166 818.58661848 401.89795665 825.72026102 383.84375 826.06640625 C365.38809779 826.06640625 350.31688213 816.67366151 335.40625 806.75390625 C335.303125 807.46160156 335.2 808.16929687 335.09375 808.8984375 C331.92037697 822.07875387 320.88808981 832.77463018 309.79101562 839.7644043 C304.30095131 843.03247637 298.60697647 845.20141438 292.40625 846.75390625 C291.66503906 846.94339844 290.92382812 847.13289062 290.16015625 847.328125 C271.35606688 850.23542392 256.30207585 845.67889223 240.40625 835.75390625 C239.37467773 835.11171143 239.37467773 835.11171143 238.32226562 834.45654297 C234.41750693 832.01737969 230.52771715 829.55537131 226.64453125 827.08203125 C221.02262144 823.50299454 215.37237774 819.97006082 209.71875 816.44140625 C208.71384521 815.81379395 207.70894043 815.18618164 206.67358398 814.53955078 C203.58473363 812.61058423 200.49554388 810.68216239 197.40625 808.75390625 C183.04850863 799.79218099 168.70539013 790.80890419 154.40625 781.75390625 C154.36757812 783.31625 154.36757812 783.31625 154.328125 784.91015625 C153.62971474 804.76696438 149.28173435 822.5626435 134.40625 836.75390625 C123.14625341 846.59314998 111.14804831 849.73352891 96.43896484 848.94921875 C84.80744351 847.83160921 73.92824959 840.329486 66.40625 831.75390625 C63.75247082 828.10235609 61.40131624 824.26631299 59.03320312 820.42578125 C52.55182101 810.27650647 43.75707901 804.86054844 33.53125 798.81640625 C32.29100998 798.07485459 31.05135544 797.33232291 29.81225586 796.58886719 C27.90264405 795.44318306 25.99274626 794.29801894 24.08110046 793.1557312 C17.67580383 789.32743396 11.3200597 785.42114393 4.96875 781.50390625 C3.907771 780.85309082 2.84679199 780.20227539 1.75366211 779.53173828 C-3.43357598 776.34543481 -8.59303786 773.12480495 -13.7109375 769.828125 C-15.15448608 768.90725098 -15.15448608 768.90725098 -16.62719727 767.96777344 C-18.42994313 766.81546043 -20.22524979 765.65139289 -22.01147461 764.47363281 C-22.8081958 763.96670898 -23.60491699 763.45978516 -24.42578125 762.9375 C-25.11389893 762.48947021 -25.8020166 762.04144043 -26.51098633 761.57983398 C-29.27660804 760.48311634 -30.77998128 760.88483364 -33.59375 761.75390625 C-35.4861288 762.62377008 -35.4861288 762.62377008 -37.24609375 763.765625 C-37.92816895 764.18618164 -38.61024414 764.60673828 -39.31298828 765.04003906 C-40.04501465 765.50249023 -40.77704102 765.96494141 -41.53125 766.44140625 C-42.31483887 766.92834961 -43.09842773 767.41529297 -43.90576172 767.91699219 C-50.96887493 772.32087168 -57.98526346 776.80024189 -65.00024414 781.28027344 C-74.81048387 787.54432706 -84.68434551 793.7050345 -94.56152344 799.86279297 C-99.57465541 802.98934049 -104.58402243 806.12190786 -109.59375 809.25390625 C-111.59373171 810.50393551 -113.59373172 811.75393551 -115.59375 813.00390625 C-117.07875 813.93203125 -117.07875 813.93203125 -118.59375 814.87890625 C-123.09375 817.69140625 -123.09375 817.69140625 -127.59375 820.50390625 C-128.58463623 821.12322021 -129.57552246 821.74253418 -130.59643555 822.38061523 C-132.58744712 823.62497719 -134.57849503 824.86928101 -136.56958008 826.11352539 C-141.70740946 829.3243006 -146.84451749 832.53622128 -151.98046875 835.75 C-156.99980412 838.8905574 -162.02121092 842.02777355 -167.04443359 845.16210938 C-169.26677715 846.54974392 -171.48708218 847.94057188 -173.70703125 849.33203125 C-190.45723131 859.7646818 -206.48015977 864.69422117 -226.3828125 861.0625 C-241.87162797 856.64504547 -256.51955588 847.2240844 -264.58789062 833.00146484 C-266.72634993 828.98289067 -268.67106264 824.87988939 -270.59375 820.75390625 C-271.2572059 819.41897236 -271.92319891 818.08529029 -272.59375 816.75390625 C-275.30243154 818.4616893 -278.01069832 820.17012484 -280.71875 821.87890625 C-281.98755005 822.67893066 -281.98755005 822.67893066 -283.28198242 823.49511719 C-287.95229086 826.44299098 -292.61391222 829.40347549 -297.26171875 832.38671875 C-301.87755321 835.34914377 -306.50603317 838.29052407 -311.14794922 841.21191406 C-312.65825753 842.16411084 -314.16571943 843.12086052 -315.66845703 844.08496094 C-329.3735394 852.83929291 -345.34962211 857.57197708 -361.67431641 854.34228516 C-380.57069099 849.7756246 -394.62849186 839.67576586 -405.00439453 823.4375 C-406.69475522 820.65691604 -407.59375 819.06532982 -407.59375 815.75390625 C-408.43035156 816.140625 -409.26695312 816.52734375 -410.12890625 816.92578125 C-427.86273188 824.85985163 -445.29378156 829.31542331 -464.2578125 823.06640625 C-482.23524969 815.99331621 -496.07689112 803.39787748 -504.3046875 785.8203125 C-510.2661884 771.63916643 -511.34233568 753.2632678 -505.91796875 738.703125 C-496.25645131 717.18558616 -481.48848172 706.77423973 -461.7421875 695.0625 C-460.99114746 694.61704834 -460.24010742 694.17159668 -459.46630859 693.71264648 C-457.59375 692.75390625 -457.59375 692.75390625 -455.59375 692.75390625 C-456.26470703 691.84511719 -456.26470703 691.84511719 -456.94921875 690.91796875 C-467.47659275 676.32779157 -472.19468962 661.83193229 -470.59375 643.75390625 C-467.55778664 628.29965208 -459.15668202 615.14643417 -446.75390625 605.55859375 C-443.10914777 603.1410112 -439.38601489 600.93050426 -435.59375 598.75390625 C-434.63291504 598.19751465 -433.67208008 597.64112305 -432.68212891 597.06787109 C-426.21009658 593.32575278 -419.71688831 589.62238887 -413.21186829 585.93803406 C-406.6215738 582.20533286 -400.04427378 578.45004994 -393.46875 574.69140625 C-392.32277344 574.03664307 -391.17679687 573.38187988 -389.99609375 572.70727539 C-381.81205209 568.0287854 -373.63658467 563.33562537 -365.46875 558.62890625 C-363.89649658 557.72386353 -363.89649658 557.72386353 -362.29248047 556.80053711 C-356.02056983 553.18173698 -349.78928352 549.50199039 -343.59375 545.75390625 C-347.6941269 542.63052654 -352.01346274 539.89970195 -356.37304688 537.15820312 C-366.5488061 530.69269915 -375.31197294 521.77729132 -379 509.99609375 C-381.13716073 498.32607134 -381.09578185 486.02347057 -374.59375 475.75390625 C-366.93138336 465.31619421 -356.97233449 457.436101 -344.00146484 455.33374023 C-340.34834761 454.89967022 -336.69419172 454.52110237 -333.02929688 454.20117188 C-320.94125603 452.84478621 -311.14695162 446.05052373 -300.96875 439.81640625 C-292.30091337 434.55832206 -283.58215498 429.41097049 -274.78125 424.37890625 C-261.69929673 416.88877213 -248.82800891 409.07032715 -235.97851562 401.18994141 C-233.59375 399.75390625 -233.59375 399.75390625 -231.59375 398.75390625 C-231.59155016 397.30941542 -231.59155016 397.30941542 -231.58930588 395.83574295 C-231.55266447 372.373086 -231.49315405 348.91057128 -231.40984726 325.44803238 C-231.37008629 314.10158307 -231.33767882 302.75520282 -231.32275391 291.40869141 C-231.30972218 281.51578056 -231.28271858 271.62302186 -231.23913693 261.73019671 C-231.21655646 256.49498512 -231.20083728 251.25996096 -231.20186615 246.02469635 C-231.20261477 241.08998102 -231.18458282 236.15567946 -231.15258217 231.22107124 C-231.14411273 229.41684165 -231.142313 227.61256549 -231.14794731 225.80832481 C-231.19549871 208.23027789 -227.3378959 193.63132268 -214.90625 180.44140625 C-203.98198042 170.11481707 -192.15464077 165.18296997 -177.28125 165.50390625 C-175.81848633 165.51164062 -175.81848633 165.51164062 -174.32617188 165.51953125 C-170.22052141 165.56461732 -166.56961837 165.703446 -162.59375 166.75390625 C-162.60263245 165.88741455 -162.61151489 165.02092285 -162.6206665 164.12817383 C-162.7013984 155.89217234 -162.76200852 147.65630706 -162.80099869 139.41999817 C-162.82171901 135.1873767 -162.84974512 130.95508691 -162.89550781 126.72265625 C-162.93952979 122.62475408 -162.96300343 118.52716734 -162.97325897 114.42904663 C-162.98055082 112.87921189 -162.99478386 111.32939096 -163.01667023 109.7796936 C-163.28158162 90.21271195 -158.8619941 73.6245405 -145.04296875 59.0078125 C-133.3512108 48.24841165 -118.43112664 43.25980087 -102.7109375 43.484375 C-97.51060016 43.93402823 -92.58388653 45.2674826 -87.59375 46.75390625 C-87.67625 45.70203125 -87.75875 44.65015625 -87.84375 43.56640625 C-87.77084427 29.78722325 -80.21304932 16.97799887 -70.84375 7.37890625 C-65.65273403 2.29659417 -60.26479748 -1.30068975 -53.59375 -4.24609375 C-52.81515625 -4.65601563 -52.0365625 -5.0659375 -51.234375 -5.48828125 C-35.48458897 -12.76127162 -14.13013986 -9.15247696 0 0 Z " transform="translate(543.59375,63.24609375)" style="fill: #FEFDFE;"/><path d="M0 0 C13.52687676 9.85968777 22.75885617 22.47633641 25.98435974 39.03057861 C26.62953147 43.19520188 26.65429421 47.27453637 26.6015625 51.48046875 C26.59731766 52.79100723 26.59731766 52.79100723 26.59298706 54.12802124 C26.58192303 56.87846439 26.55684581 59.62856399 26.53125 62.37890625 C26.52120234 64.26041192 26.51207964 66.14192276 26.50390625 68.0234375 C26.48202912 72.60038982 26.44759719 77.1770901 26.40625 81.75390625 C27.20724121 81.54096924 28.00823242 81.32803223 28.83349609 81.10864258 C30.42798584 80.69521606 30.42798584 80.69521606 32.0546875 80.2734375 C33.62742432 79.86121948 33.62742432 79.86121948 35.23193359 79.44067383 C48.69140567 76.52869914 62.53462396 80.4511797 74.14453125 87.390625 C87.34316992 96.30321105 96.59531883 108.4647405 99.93882751 124.27175903 C100.55785547 128.88331829 100.58371239 133.42551899 100.61157227 138.07373047 C100.62147186 139.09873154 100.63137146 140.1237326 100.64157104 141.17979431 C100.67307071 144.55603757 100.69789781 147.93229489 100.72265625 151.30859375 C100.74323573 153.65414793 100.76423247 155.99969849 100.78562927 158.34524536 C100.84074719 164.51010191 100.89020175 170.67499136 100.93847656 176.83990479 C100.98876672 183.13418496 101.04441353 189.42841752 101.09960938 195.72265625 C101.20706519 208.06636555 101.308538 220.41011624 101.40625 232.75390625 C101.94708725 232.34199036 102.4879245 231.93007446 103.04515076 231.50567627 C103.75913528 230.96529724 104.47311981 230.42491821 105.20874023 229.86816406 C105.91457748 229.33249817 106.62041473 228.79683228 107.34764099 228.24493408 C109.9336185 226.37193906 112.60329176 224.90771083 115.46875 223.50390625 C116.90927734 222.78460938 116.90927734 222.78460938 118.37890625 222.05078125 C129.99964239 217.07260783 146.45866296 216.14010872 158.34375 220.87890625 C161.03515625 222.26953125 161.03515625 222.26953125 163.40625 223.75390625 C164.15777344 224.223125 164.90929687 224.69234375 165.68359375 225.17578125 C174.07725369 230.99038366 179.80188293 238.90783838 183.0234375 248.61328125 C185.07735008 260.09842506 183.39569985 271.00246222 176.84375 280.69140625 C169.32874306 292.3121343 171.01700339 307.01921475 171.11328125 320.23828125 C171.11888511 322.50799274 171.12315147 324.77770788 171.12614441 327.04742432 C171.13753098 332.98545569 171.16694432 338.92326261 171.20025635 344.86120605 C171.23109134 350.93478358 171.24467831 357.00839781 171.25976562 363.08203125 C171.29182043 374.9727542 171.34294107 386.86331147 171.40625 398.75390625 C172.12938889 399.16967926 172.85252777 399.58545227 173.59757996 400.01382446 C176.3449903 401.59417011 179.09182413 403.17551232 181.83830261 404.75747681 C183.58574516 405.76361918 185.33381783 406.76866693 187.08190918 407.77368164 C194.67493064 412.14840628 202.21578284 416.6015724 209.71875 421.12890625 C210.35170486 421.5101767 210.98465973 421.89144714 211.63679504 422.28427124 C213.06680248 423.14597253 214.49631465 424.00849558 215.92578125 424.87109375 C222.88616797 429.05565646 229.89380252 433.15748138 236.90625 437.25390625 C245.94015747 442.53208078 254.94427198 447.85403452 263.90625 453.25390625 C272.78920358 458.60383467 281.70776089 463.88962923 290.65625 469.12890625 C291.25614746 469.48041748 291.85604492 469.83192871 292.47412109 470.1940918 C298.73216032 473.86071478 304.99512704 477.51855483 311.27093506 481.1546936 C313.86239837 482.65705597 316.4515123 484.16344077 319.04040527 485.67022705 C320.25611269 486.37630769 321.47293896 487.08046653 322.69104004 487.78240967 C341.56284409 498.65835019 356.15417904 508.76622036 363.58203125 530.13671875 C364.5401453 534.34152257 364.75076756 538.2071494 364.71875 542.50390625 C364.71029053 543.6952417 364.71029053 543.6952417 364.70166016 544.91064453 C364.39375741 559.88203459 358.03644973 572.47118704 348.40625 583.75390625 C349.12071289 584.02396484 349.83517578 584.29402344 350.57128906 584.57226562 C353.43488414 585.76584125 356.06093893 587.14217148 358.765625 588.66015625 C359.79034912 589.23403076 360.81507324 589.80790527 361.87084961 590.39916992 C362.95503174 591.01123291 364.03921387 591.6232959 365.15625 592.25390625 C366.27717041 592.88466064 367.39809082 593.51541504 368.55297852 594.1652832 C376.86816314 598.8569247 385.14405705 603.60623 393.33203125 608.51660156 C395.57823813 609.85649992 397.83589375 611.17593148 400.09375 612.49609375 C417.1388792 622.5560861 430.45346303 633.90161869 436.5546875 653.4296875 C440.30501474 669.61834391 437.93876891 686.75504976 429.34375 700.81640625 C427.14718644 704.22719305 424.88088651 707.53919152 422.40625 710.75390625 C423.0353125 711.27597656 423.664375 711.79804687 424.3125 712.3359375 C436.41774619 722.74571999 445.10328075 735.65815377 447.40625 751.75390625 C448.727181 771.95765421 444.02157823 789.97134705 430.78125 805.62890625 C418.18990166 818.58661848 401.89795665 825.72026102 383.84375 826.06640625 C365.38809779 826.06640625 350.31688213 816.67366151 335.40625 806.75390625 C335.303125 807.46160156 335.2 808.16929687 335.09375 808.8984375 C331.92037697 822.07875387 320.88808981 832.77463018 309.79101562 839.7644043 C304.30095131 843.03247637 298.60697647 845.20141438 292.40625 846.75390625 C291.66503906 846.94339844 290.92382812 847.13289062 290.16015625 847.328125 C271.35606688 850.23542392 256.30207585 845.67889223 240.40625 835.75390625 C239.37467773 835.11171143 239.37467773 835.11171143 238.32226562 834.45654297 C234.41750693 832.01737969 230.52771715 829.55537131 226.64453125 827.08203125 C221.02262144 823.50299454 215.37237774 819.97006082 209.71875 816.44140625 C208.71384521 815.81379395 207.70894043 815.18618164 206.67358398 814.53955078 C203.58473363 812.61058423 200.49554388 810.68216239 197.40625 808.75390625 C183.04850863 799.79218099 168.70539013 790.80890419 154.40625 781.75390625 C154.36757812 783.31625 154.36757812 783.31625 154.328125 784.91015625 C153.62971474 804.76696438 149.28173435 822.5626435 134.40625 836.75390625 C123.14625341 846.59314998 111.14804831 849.73352891 96.43896484 848.94921875 C84.80744351 847.83160921 73.92824959 840.329486 66.40625 831.75390625 C63.75247082 828.10235609 61.40131624 824.26631299 59.03320312 820.42578125 C52.55182101 810.27650647 43.75707901 804.86054844 33.53125 798.81640625 C32.29100998 798.07485459 31.05135544 797.33232291 29.81225586 796.58886719 C27.90264405 795.44318306 25.99274626 794.29801894 24.08110046 793.1557312 C17.67580383 789.32743396 11.3200597 785.42114393 4.96875 781.50390625 C3.907771 780.85309082 2.84679199 780.20227539 1.75366211 779.53173828 C-3.43357598 776.34543481 -8.59303786 773.12480495 -13.7109375 769.828125 C-15.15448608 768.90725098 -15.15448608 768.90725098 -16.62719727 767.96777344 C-18.42994313 766.81546043 -20.22524979 765.65139289 -22.01147461 764.47363281 C-22.8081958 763.96670898 -23.60491699 763.45978516 -24.42578125 762.9375 C-25.11389893 762.48947021 -25.8020166 762.04144043 -26.51098633 761.57983398 C-29.27660804 760.48311634 -30.77998128 760.88483364 -33.59375 761.75390625 C-35.4861288 762.62377008 -35.4861288 762.62377008 -37.24609375 763.765625 C-37.92816895 764.18618164 -38.61024414 764.60673828 -39.31298828 765.04003906 C-40.04501465 765.50249023 -40.77704102 765.96494141 -41.53125 766.44140625 C-42.31483887 766.92834961 -43.09842773 767.41529297 -43.90576172 767.91699219 C-50.96887493 772.32087168 -57.98526346 776.80024189 -65.00024414 781.28027344 C-74.81048387 787.54432706 -84.68434551 793.7050345 -94.56152344 799.86279297 C-99.57465541 802.98934049 -104.58402243 806.12190786 -109.59375 809.25390625 C-111.59373171 810.50393551 -113.59373172 811.75393551 -115.59375 813.00390625 C-117.07875 813.93203125 -117.07875 813.93203125 -118.59375 814.87890625 C-123.09375 817.69140625 -123.09375 817.69140625 -127.59375 820.50390625 C-128.58463623 821.12322021 -129.57552246 821.74253418 -130.59643555 822.38061523 C-132.58744712 823.62497719 -134.57849503 824.86928101 -136.56958008 826.11352539 C-141.70740946 829.3243006 -146.84451749 832.53622128 -151.98046875 835.75 C-156.99980412 838.8905574 -162.02121092 842.02777355 -167.04443359 845.16210938 C-169.26677715 846.54974392 -171.48708218 847.94057188 -173.70703125 849.33203125 C-190.45723131 859.7646818 -206.48015977 864.69422117 -226.3828125 861.0625 C-241.87162797 856.64504547 -256.51955588 847.2240844 -264.58789062 833.00146484 C-266.72634993 828.98289067 -268.67106264 824.87988939 -270.59375 820.75390625 C-271.2572059 819.41897236 -271.92319891 818.08529029 -272.59375 816.75390625 C-275.30243154 818.4616893 -278.01069832 820.17012484 -280.71875 821.87890625 C-281.98755005 822.67893066 -281.98755005 822.67893066 -283.28198242 823.49511719 C-287.95229086 826.44299098 -292.61391222 829.40347549 -297.26171875 832.38671875 C-301.87755321 835.34914377 -306.50603317 838.29052407 -311.14794922 841.21191406 C-312.65825753 842.16411084 -314.16571943 843.12086052 -315.66845703 844.08496094 C-329.3735394 852.83929291 -345.34962211 857.57197708 -361.67431641 854.34228516 C-380.57069099 849.7756246 -394.62849186 839.67576586 -405.00439453 823.4375 C-406.69475522 820.65691604 -407.59375 819.06532982 -407.59375 815.75390625 C-408.43035156 816.140625 -409.26695312 816.52734375 -410.12890625 816.92578125 C-427.86273188 824.85985163 -445.29378156 829.31542331 -464.2578125 823.06640625 C-482.23524969 815.99331621 -496.07689112 803.39787748 -504.3046875 785.8203125 C-510.2661884 771.63916643 -511.34233568 753.2632678 -505.91796875 738.703125 C-496.25645131 717.18558616 -481.48848172 706.77423973 -461.7421875 695.0625 C-460.99114746 694.61704834 -460.24010742 694.17159668 -459.46630859 693.71264648 C-457.59375 692.75390625 -457.59375 692.75390625 -455.59375 692.75390625 C-456.26470703 691.84511719 -456.26470703 691.84511719 -456.94921875 690.91796875 C-467.47659275 676.32779157 -472.19468962 661.83193229 -470.59375 643.75390625 C-467.55778664 628.29965208 -459.15668202 615.14643417 -446.75390625 605.55859375 C-443.10914777 603.1410112 -439.38601489 600.93050426 -435.59375 598.75390625 C-434.63291504 598.19751465 -433.67208008 597.64112305 -432.68212891 597.06787109 C-426.21009658 593.32575278 -419.71688831 589.62238887 -413.21186829 585.93803406 C-406.6215738 582.20533286 -400.04427378 578.45004994 -393.46875 574.69140625 C-392.32277344 574.03664307 -391.17679687 573.38187988 -389.99609375 572.70727539 C-381.81205209 568.0287854 -373.63658467 563.33562537 -365.46875 558.62890625 C-363.89649658 557.72386353 -363.89649658 557.72386353 -362.29248047 556.80053711 C-356.02056983 553.18173698 -349.78928352 549.50199039 -343.59375 545.75390625 C-347.6941269 542.63052654 -352.01346274 539.89970195 -356.37304688 537.15820312 C-366.5488061 530.69269915 -375.31197294 521.77729132 -379 509.99609375 C-381.13716073 498.32607134 -381.09578185 486.02347057 -374.59375 475.75390625 C-366.93138336 465.31619421 -356.97233449 457.436101 -344.00146484 455.33374023 C-340.34834761 454.89967022 -336.69419172 454.52110237 -333.02929688 454.20117188 C-320.94125603 452.84478621 -311.14695162 446.05052373 -300.96875 439.81640625 C-292.30091337 434.55832206 -283.58215498 429.41097049 -274.78125 424.37890625 C-261.69929673 416.88877213 -248.82800891 409.07032715 -235.97851562 401.18994141 C-233.59375 399.75390625 -233.59375 399.75390625 -231.59375 398.75390625 C-231.59155016 397.30941542 -231.59155016 397.30941542 -231.58930588 395.83574295 C-231.55266447 372.373086 -231.49315405 348.91057128 -231.40984726 325.44803238 C-231.37008629 314.10158307 -231.33767882 302.75520282 -231.32275391 291.40869141 C-231.30972218 281.51578056 -231.28271858 271.62302186 -231.23913693 261.73019671 C-231.21655646 256.49498512 -231.20083728 251.25996096 -231.20186615 246.02469635 C-231.20261477 241.08998102 -231.18458282 236.15567946 -231.15258217 231.22107124 C-231.14411273 229.41684165 -231.142313 227.61256549 -231.14794731 225.80832481 C-231.19549871 208.23027789 -227.3378959 193.63132268 -214.90625 180.44140625 C-203.98198042 170.11481707 -192.15464077 165.18296997 -177.28125 165.50390625 C-175.81848633 165.51164062 -175.81848633 165.51164062 -174.32617188 165.51953125 C-170.22052141 165.56461732 -166.56961837 165.703446 -162.59375 166.75390625 C-162.60263245 165.88741455 -162.61151489 165.02092285 -162.6206665 164.12817383 C-162.7013984 155.89217234 -162.76200852 147.65630706 -162.80099869 139.41999817 C-162.82171901 135.1873767 -162.84974512 130.95508691 -162.89550781 126.72265625 C-162.93952979 122.62475408 -162.96300343 118.52716734 -162.97325897 114.42904663 C-162.98055082 112.87921189 -162.99478386 111.32939096 -163.01667023 109.7796936 C-163.28158162 90.21271195 -158.8619941 73.6245405 -145.04296875 59.0078125 C-133.3512108 48.24841165 -118.43112664 43.25980087 -102.7109375 43.484375 C-97.51060016 43.93402823 -92.58388653 45.2674826 -87.59375 46.75390625 C-87.67625 45.70203125 -87.75875 44.65015625 -87.84375 43.56640625 C-87.77084427 29.78722325 -80.21304932 16.97799887 -70.84375 7.37890625 C-65.65273403 2.29659417 -60.26479748 -1.30068975 -53.59375 -4.24609375 C-52.81515625 -4.65601563 -52.0365625 -5.0659375 -51.234375 -5.48828125 C-35.48458897 -12.76127162 -14.13013986 -9.15247696 0 0 Z M-51.26953125 34.8125 C-55.83574412 41.50691828 -56.0154375 46.80492586 -55.95451355 54.71273804 C-55.95707682 55.92659608 -55.9596401 57.14045413 -55.96228105 58.39109576 C-55.96636389 61.75260188 -55.95700481 65.11358245 -55.94194686 68.47502494 C-55.92897919 72.102765 -55.93337648 75.73048913 -55.93565369 79.35824585 C-55.93722596 85.64096284 -55.92782158 91.92358629 -55.91094017 98.20627975 C-55.88654849 107.2899597 -55.87874473 116.37359446 -55.8749762 125.4573036 C-55.86841198 140.19535694 -55.84845161 154.93336044 -55.82006836 169.67138672 C-55.79252703 183.98713939 -55.77129381 198.30287852 -55.75854492 212.61865234 C-55.75775675 213.50122669 -55.75696858 214.38380104 -55.75615653 215.29312007 C-55.75224139 219.72078127 -55.74845027 224.14844257 -55.74472082 228.57610393 C-55.71362583 265.30207322 -55.66079082 302.02798585 -55.59375 338.75390625 C-56.69704147 338.74666031 -57.80033295 338.73941437 -58.9370575 338.73194885 C-61.9463588 338.75001885 -64.44589456 338.96380603 -67.36328125 339.59375 C-68.18892578 339.76970703 -69.01457031 339.94566406 -69.86523438 340.12695312 C-71.12303711 340.40635742 -71.12303711 340.40635742 -72.40625 340.69140625 C-73.26412109 340.87380859 -74.12199219 341.05621094 -75.00585938 341.24414062 C-79.42311978 342.13451929 -79.42311978 342.13451929 -83.59375 343.75390625 C-83.59098462 342.48223319 -83.58821924 341.21056013 -83.58537006 339.90035152 C-83.5203901 309.71029928 -83.47092525 279.52026592 -83.44055401 249.33016052 C-83.43680191 245.61390572 -83.43291894 241.89765107 -83.42895508 238.18139648 C-83.42816815 237.44156019 -83.42738122 236.7017239 -83.42657044 235.93946833 C-83.41351816 223.96170082 -83.38986529 211.98397652 -83.36229161 200.00623464 C-83.33423246 187.71505865 -83.31757266 175.42390529 -83.31148452 163.1326986 C-83.30736913 155.54896321 -83.29437314 147.96534997 -83.2700006 140.38165218 C-83.25226125 134.56548861 -83.25038568 128.74940323 -83.25442696 122.933218 C-83.25360103 120.54795327 -83.24762574 118.16268394 -83.23613358 115.77744675 C-83.22121554 112.52170304 -83.22479426 109.26648266 -83.23298645 106.01072693 C-83.22424793 105.06616164 -83.2155094 104.12159635 -83.20650607 103.14840788 C-83.26567943 94.45223153 -85.84077085 88.88276608 -91.78125 82.484375 C-96.19780953 78.26770286 -100.99469418 77.05310644 -106.94140625 76.6328125 C-114.36964923 76.97195172 -120.01707586 80.5004261 -125.12109375 85.6796875 C-129.77472597 92.23427293 -130.00482289 97.99193261 -129.8848114 105.80314636 C-129.88016918 106.90730324 -129.87552695 108.01146011 -129.87074405 109.14907628 C-129.85194863 112.84465352 -129.81186362 116.53969963 -129.7722168 120.23510742 C-129.75503717 122.88659025 -129.73915334 125.5380463 -129.72521973 128.18954468 C-129.69759195 133.15915824 -129.66441806 138.128683 -129.62474809 143.09821514 C-129.54694387 152.86820656 -129.50765731 162.63802399 -129.4823761 172.40827942 C-129.47820196 173.94842207 -129.47400894 175.48856466 -129.46979731 177.02870721 C-129.46345689 179.36259885 -129.45715081 181.69649056 -129.45094451 184.03038257 C-129.42746912 192.82243403 -129.40032549 201.61446914 -129.3684082 210.40649414 C-129.36550535 211.20984451 -129.36260249 212.01319488 -129.35961167 212.84088919 C-129.31107377 225.85306329 -129.21477338 238.86451756 -129.1035172 251.87628683 C-128.99054744 265.25146682 -128.93893322 278.62594736 -128.94131213 292.00160581 C-128.94065809 300.24349223 -128.89121596 308.48212229 -128.77824245 316.72324757 C-128.70513105 322.37611989 -128.69101093 328.02724609 -128.72243734 333.68049552 C-128.73876507 336.9390514 -128.72078149 340.19093758 -128.64946175 343.44891167 C-128.25486225 362.47375816 -128.25486225 362.47375816 -132.14020562 367.92271638 C-135.8233167 371.6055419 -139.96566324 374.13627779 -144.54609358 376.55479968 C-147.91634607 378.52841785 -150.73590311 381.11043217 -153.59375 383.75390625 C-153.59521656 382.89029984 -153.59668312 382.02669342 -153.59819412 381.13691711 C-153.63526407 360.11245154 -153.69428138 339.08814715 -153.77765274 318.06381226 C-153.81744284 307.89654276 -153.8498355 297.72935066 -153.86474609 287.56201172 C-153.87776273 278.69898028 -153.90472778 269.83611915 -153.94836307 260.97318363 C-153.97097754 256.28135807 -153.98666069 251.58974256 -153.98563385 246.89785767 C-153.98488723 242.47858083 -154.00283867 238.05976832 -154.03491783 233.64061165 C-154.04341244 232.02176087 -154.04516972 230.40285799 -154.03955269 228.78399467 C-154.01165123 219.5040726 -153.9976383 212.08004912 -160.33984375 204.73046875 C-161.17708984 204.06144531 -161.17708984 204.06144531 -162.03125 203.37890625 C-162.58683594 202.91742188 -163.14242188 202.4559375 -163.71484375 201.98046875 C-170.15583451 197.77574713 -177.14359599 197.83505392 -184.59375 198.75390625 C-191.79178286 201.48957481 -196.0554856 207.1196605 -199.59375 213.75390625 C-200.82589615 217.4503447 -200.66138445 220.80212742 -200.57701111 224.64447021 C-200.55690101 225.86363093 -200.55690101 225.86363093 -200.53638464 227.10742116 C-200.50657361 228.89235405 -200.47447535 230.67724981 -200.44041634 232.4621067 C-200.34631485 237.42610725 -200.27044586 242.39039748 -200.19261169 247.35467529 C-200.17560679 248.41449568 -200.15860189 249.47431607 -200.14108169 250.56625223 C-199.91049294 265.32476502 -199.81873373 280.08467509 -199.71991634 294.8445549 C-199.63536177 306.86859345 -199.50252058 318.88867473 -199.26000977 330.91064453 C-199.04853237 341.40387923 -198.92963564 351.89353836 -198.91908652 362.38896585 C-198.91020853 367.94152136 -198.85603109 373.48500306 -198.69013786 379.03527069 C-197.69441401 413.81158312 -197.69441401 413.81158312 -204.15248489 421.05218506 C-209.97958616 426.43405113 -217.11199755 429.25787828 -224.57297707 431.70140553 C-228.60228124 433.10529971 -231.79125863 435.06470344 -235.34375 437.41015625 C-236.91286133 438.37272339 -236.91286133 438.37272339 -238.51367188 439.35473633 C-239.53009766 439.9814624 -240.54652344 440.60818848 -241.59375 441.25390625 C-251.74816554 447.47648412 -261.99860314 453.50707626 -272.33642578 459.42163086 C-279.10345565 463.29795644 -285.80315908 467.26850998 -292.46875 471.31640625 C-306.15465385 479.59245485 -317.99440858 484.69626926 -334.03125 486.43359375 C-339.30510217 487.09849202 -342.7822052 487.72455889 -346.59375 491.75390625 C-348.1485169 494.86344004 -347.88019437 497.31657386 -347.59375 500.75390625 C-342.82045292 510.49938778 -332.22927185 515.02509129 -322.59375 518.75390625 C-308.98602687 523.14190393 -294.21220635 523.66595552 -281.03515625 517.5703125 C-278.17710757 516.03470948 -275.39117507 514.39739348 -272.59375 512.75390625 C-271.32536777 512.05413247 -270.0543451 511.35913133 -268.78125 510.66796875 C-257.66397553 504.61996485 -246.82147662 498.14576432 -235.98828125 491.60546875 C-229.69137846 487.80476583 -223.36630658 484.05309166 -217.03125 480.31640625 C-216.07895508 479.7546167 -215.12666016 479.19282715 -214.14550781 478.61401367 C-211.96200851 477.32659609 -209.77813317 476.03982341 -207.59375 474.75390625 C-207.89023437 475.66914062 -208.18671875 476.584375 -208.4921875 477.52734375 C-209.9741 482.72057151 -210.55370754 488.03142198 -211.21875 493.37890625 C-211.3528125 494.40242188 -211.486875 495.4259375 -211.625 496.48046875 C-212.19434964 500.94231081 -212.66975093 505.24958436 -212.59375 509.75390625 C-213.54894531 510.09035156 -213.54894531 510.09035156 -214.5234375 510.43359375 C-218.77908461 512.26363029 -222.70997981 514.56477486 -226.71875 516.87890625 C-227.63035889 517.40242676 -228.54196777 517.92594727 -229.48120117 518.46533203 C-238.15402752 523.46421744 -246.76233739 528.57150398 -255.36743164 533.68579102 C-272.28564184 543.73990624 -289.31435141 553.6006994 -306.36645508 563.42553711 C-315.1396496 568.48366365 -323.87884365 573.59614466 -332.59375 578.75390625 C-335.10454177 580.23928655 -337.61542607 581.72450996 -340.12646484 583.20947266 C-341.95509346 584.29087729 -343.78354073 585.37258863 -345.61181641 586.45458984 C-350.88620005 589.57319166 -356.16854591 592.67768821 -361.4609375 595.765625 C-376.19516551 604.3660602 -390.8396643 613.09641858 -405.40234375 621.984375 C-409.09158646 624.23571314 -412.78702254 626.47427913 -416.50390625 628.6796875 C-417.20209473 629.09412109 -417.9002832 629.50855469 -418.61962891 629.93554688 C-420.34738792 630.9576388 -422.07783378 631.97518551 -423.80859375 632.9921875 C-430.20945728 637.04098056 -433.46045654 640.4756109 -435.59375 647.75390625 C-436.90662747 656.21467215 -434.26264806 662.4045909 -429.90625 669.50390625 C-425.00918036 674.26862266 -419.91977896 677.04156595 -413.03125 677.56640625 C-397.59148029 676.71827907 -382.80527209 664.15493396 -369.98046875 656.2734375 C-362.89592866 651.92002339 -355.75461479 647.66781662 -348.59375 643.44140625 C-341.01676646 638.96507944 -333.4463032 634.47969458 -325.90625 629.94140625 C-320.02647154 626.40251459 -314.13491472 622.88426092 -308.23046875 619.38671875 C-307.57444168 618.99806137 -306.91841461 618.60940399 -306.24250793 618.20896912 C-300.53584928 614.82825778 -300.53584928 614.82825778 -298.0272522 613.34243774 C-288.17485375 607.50441537 -278.36887661 601.59527713 -268.59375 595.62890625 C-260.8902432 590.92747024 -253.16889992 586.29626703 -245.26831055 581.93334961 C-232.12640775 574.65424173 -219.35745211 566.6729915 -206.59375 558.75390625 C-206.50222656 559.69363281 -206.41070312 560.63335938 -206.31640625 561.6015625 C-205.58978603 566.68790402 -203.78000811 571.38145572 -202.03125 576.19140625 C-201.70189453 577.11373047 -201.37253906 578.03605469 -201.03320312 578.98632812 C-200.22592353 581.24437105 -199.41266273 583.5000619 -198.59375 585.75390625 C-199.30337891 586.01550537 -200.01300781 586.27710449 -200.74414062 586.54663086 C-203.76046759 587.8245384 -206.39969559 589.35080856 -209.1875 591.0703125 C-210.28513672 591.74320313 -211.38277344 592.41609375 -212.51367188 593.109375 C-213.09560303 593.46821777 -213.67753418 593.82706055 -214.27709961 594.19677734 C-217.41851101 596.13287634 -220.56824137 598.05531253 -223.71875 599.9765625 C-224.37073364 600.37424835 -225.02271729 600.7719342 -225.69445801 601.18167114 C-232.44558576 605.28939401 -239.26492651 609.27718487 -246.09375 613.25390625 C-255.65370547 618.82503166 -265.15071347 624.48684268 -274.59375 630.25390625 C-284.03682359 636.02099245 -293.53472416 641.68114508 -303.09375 647.25390625 C-316.27279392 654.9397263 -329.32683837 662.81901629 -342.34667969 670.77099609 C-347.25900125 673.77083637 -352.17663751 676.76192823 -357.09375 679.75390625 C-358.01438232 680.3144873 -358.93501465 680.87506836 -359.88354492 681.45263672 C-370.92011927 688.17287507 -381.9670398 694.87607522 -393.01318359 701.58056641 C-395.96429408 703.3717852 -398.91526479 705.16323407 -401.86613464 706.95484924 C-403.0314119 707.66234446 -404.19670529 708.3698131 -405.36201477 709.07725525 C-408.25938953 710.83626809 -411.15647241 712.59575828 -414.05297852 714.35620117 C-419.46512682 717.64492378 -424.87989621 720.92906304 -430.30450439 724.19720459 C-432.83542709 725.72238067 -435.36478809 727.2501363 -437.89404297 728.77807617 C-439.08728048 729.49794611 -440.28126167 730.21658518 -441.47607422 730.93383789 C-458.12918104 739.91436661 -458.12918104 739.91436661 -468.59375 754.75390625 C-469.67261346 763.41888328 -468.75771862 770.59682693 -463.59375 777.75390625 C-459.33315072 782.42212551 -454.97651123 785.37707015 -448.578125 786.08984375 C-447.51078125 786.10273437 -446.4434375 786.115625 -445.34375 786.12890625 C-444.28671875 786.15726563 -443.2296875 786.185625 -442.140625 786.21484375 C-433.29688141 785.06554668 -425.89842137 779.64861542 -418.53125 774.94140625 C-416.39463053 773.59098875 -414.25790891 772.24073284 -412.12109375 770.890625 C-410.49469971 769.85881104 -410.49469971 769.85881104 -408.83544922 768.80615234 C-403.76933109 765.59890811 -398.68109821 762.42732288 -393.59375 759.25390625 C-391.59752795 758.00671575 -389.60143457 756.75931927 -387.60546875 755.51171875 C-386.61595215 754.89329102 -385.62643555 754.27486328 -384.60693359 753.63769531 C-381.56689041 751.73711411 -378.52750948 749.83547783 -375.48828125 747.93359375 C-365.18180903 741.4854419 -354.86512268 735.05484824 -344.5222168 728.6652832 C-337.90506542 724.57435197 -331.31055466 720.4480202 -324.71875 716.31640625 C-315.81566655 710.73826853 -306.86152403 705.25064658 -297.8762207 699.80615234 C-292.01230683 696.24615191 -286.19253488 692.62604214 -280.40625 688.94140625 C-271.97516037 683.57591938 -263.44209506 678.38493001 -254.89263916 673.21136475 C-247.1647067 668.53483809 -239.45360844 663.83381853 -231.78125 659.06640625 C-223.62491597 653.99844643 -215.43262939 648.99236944 -207.22241211 644.01220703 C-202.32526211 641.03808728 -197.44121179 638.04517956 -192.578125 635.015625 C-191.61455078 634.41556641 -190.65097656 633.81550781 -189.65820312 633.19726562 C-187.82183248 632.05160483 -185.98711544 630.90328796 -184.15429688 629.75195312 C-183.33509766 629.24083984 -182.51589844 628.72972656 -181.671875 628.203125 C-180.95418945 627.75283936 -180.23650391 627.30255371 -179.49707031 626.83862305 C-177.59375 625.75390625 -177.59375 625.75390625 -174.59375 624.75390625 C-174.40941406 625.42035156 -174.22507812 626.08679688 -174.03515625 626.7734375 C-171.96270891 631.05874189 -168.82874219 634.05186044 -165.53125 637.44140625 C-164.24677653 638.77680037 -162.96413182 640.11395668 -161.68359375 641.453125 C-161.11503662 642.03924561 -160.54647949 642.62536621 -159.96069336 643.22924805 C-158.59375 644.75390625 -158.59375 644.75390625 -157.59375 646.75390625 C-158.33278564 647.03282715 -159.07182129 647.31174805 -159.83325195 647.59912109 C-162.33300386 648.64482964 -164.47317869 649.79266218 -166.76171875 651.23046875 C-167.55843994 651.72772461 -168.35516113 652.22498047 -169.17602539 652.73730469 C-170.46561157 653.54989746 -170.46561157 653.54989746 -171.78125 654.37890625 C-173.67943398 655.56420817 -175.57788343 656.74908505 -177.4765625 657.93359375 C-178.4759082 658.5584668 -179.47525391 659.18333984 -180.50488281 659.82714844 C-185.70922259 663.07348495 -190.9321472 666.28950039 -196.15625 669.50390625 C-197.24123779 670.17180176 -198.32622559 670.83969727 -199.4440918 671.52783203 C-208.06269289 676.82683895 -216.70806302 682.08076623 -225.36032104 687.32455444 C-237.06524237 694.41957983 -248.72611119 701.5849323 -260.37597656 708.77001953 C-265.77966705 712.10161201 -271.18693658 715.42738539 -276.59375 718.75390625 C-277.66496094 719.41326172 -278.73617187 720.07261719 -279.83984375 720.75195312 C-285.27964391 724.10027777 -290.7206803 727.44656393 -296.1640625 730.7890625 C-308.67388533 738.47345523 -321.15549666 746.20024755 -333.59375 754 C-337.79295753 756.63214215 -342.00260508 759.24664002 -346.21875 761.8515625 C-347.30655762 762.52566162 -348.39436523 763.19976074 -349.51513672 763.89428711 C-351.59264139 765.18128875 -353.67227126 766.46486861 -355.75439453 767.74438477 C-367.16240933 774.57505602 -367.16240933 774.57505602 -373.59375 785.75390625 C-374.60716681 793.34419136 -374.01324745 800.34563495 -369.59375 806.75390625 C-365.28903497 811.35853995 -360.90254642 815.35801751 -354.4921875 816.125 C-353.32945312 816.14691406 -352.16671875 816.16882813 -350.96875 816.19140625 C-349.82148438 816.23136719 -348.67421875 816.27132812 -347.4921875 816.3125 C-338.84753153 815.07383687 -331.3646463 809.53453183 -324.09375 804.94140625 C-322.24640519 803.78596026 -320.39873365 802.6310365 -318.55078125 801.4765625 C-317.09986084 800.56801514 -317.09986084 800.56801514 -315.61962891 799.64111328 C-310.35737097 796.35910151 -305.06727069 793.12244857 -299.78125 789.87890625 C-290.25321805 784.02361255 -280.7563211 778.12049653 -271.27758789 772.18579102 C-259.33376196 764.70871374 -247.35325655 757.29152868 -235.34765625 749.9140625 C-233.15884224 748.56902982 -230.97004034 747.22397745 -228.78125 745.87890625 C-227.13926636 744.86993286 -227.13926636 744.86993286 -225.46411133 743.84057617 C-218.08994733 739.30400742 -210.74141496 734.72821406 -203.40625 730.12890625 C-194.65409149 724.64247853 -185.85521513 719.23890601 -177.02441406 713.88012695 C-167.17503577 707.90086983 -157.37601053 701.84223785 -147.59375 695.75390625 C-146.03333984 694.78275879 -146.03333984 694.78275879 -144.44140625 693.79199219 C-141.17868532 691.7600658 -137.91719092 689.7261879 -134.65625 687.69140625 C-133.64312744 687.05984619 -132.63000488 686.42828613 -131.58618164 685.77758789 C-130.63090576 685.18067139 -129.67562988 684.58375488 -128.69140625 683.96875 C-127.79824707 683.41300293 -126.90508789 682.85725586 -125.98486328 682.28466797 C-123.9827681 681.00295092 -122.07043985 679.65905995 -120.15234375 678.2578125 C-117.59375 676.75390625 -117.59375 676.75390625 -115.69165039 677.04174805 C-113.52499001 677.77724768 -111.52614333 678.64335507 -109.46875 679.64453125 C-108.29276245 680.21119507 -108.29276245 680.21119507 -107.09301758 680.78930664 C-105.85588013 681.39053345 -105.85588013 681.39053345 -104.59375 682.00390625 C-97.34254146 685.48855905 -90.07295411 688.78312458 -82.59375 691.75390625 C-83.10010986 692.05458008 -83.60646973 692.35525391 -84.12817383 692.66503906 C-94.17940662 698.64224144 -104.16623624 704.70015066 -114.03369141 710.97631836 C-120.74412706 715.23672822 -127.50646946 719.40921127 -134.28125 723.56640625 C-142.80641627 728.79780077 -151.30778044 734.0641898 -159.78125 739.37890625 C-167.51730115 744.22921215 -175.28569898 749.02040034 -183.09375 753.75390625 C-191.22619619 758.68800221 -199.33146633 763.66342757 -207.40625 768.69140625 C-208.37820313 769.29404297 -209.35015625 769.89667969 -210.3515625 770.51757812 C-225.53944113 779.00724004 -225.53944113 779.00724004 -235.23046875 792.73046875 C-236.47086995 799.63937003 -235.91180703 806.50489884 -232.59375 812.75390625 C-228.52822868 818.00062633 -224.09524812 821.99078812 -217.59375 823.75390625 C-205.94334657 824.97842313 -198.17848794 820.79683306 -188.71875 814.56640625 C-186.76422366 813.30022467 -184.80844097 812.03598083 -182.8515625 810.7734375 C-181.83094727 810.11424316 -180.81033203 809.45504883 -179.75878906 808.77587891 C-174.41530999 805.36221849 -169.00342439 802.06126939 -163.59375 798.75390625 C-152.69584949 792.07651949 -141.89501398 785.25908307 -131.12841797 778.37255859 C-118.97029174 770.60831501 -106.737146 762.96311547 -94.50097656 755.32275391 C-82.3292751 747.7198167 -70.19645007 740.05693374 -58.09790039 732.33813477 C-55.29100816 730.54993996 -52.47968592 728.76887633 -49.66796875 726.98828125 C-46.58385671 725.0326986 -43.52278656 723.05113901 -40.48828125 721.01953125 C-39.89257324 720.62926758 -39.29686523 720.23900391 -38.68310547 719.83691406 C-37.1651647 718.84170489 -35.65818249 717.82983368 -34.15234375 716.81640625 C-31.59375 715.75390625 -31.59375 715.75390625 -29.23095703 716.50756836 C-26.63125471 717.73618161 -24.26500984 719.08961368 -21.83984375 720.6328125 C-20.91727783 721.21562988 -19.99471191 721.79844727 -19.04418945 722.39892578 C-18.04991943 723.03169434 -17.05564941 723.66446289 -16.03125 724.31640625 C-13.86818719 725.68127311 -11.70408164 727.0444885 -9.5390625 728.40625 C-8.97598892 728.76050049 -8.41291534 729.11475098 -7.83277893 729.47973633 C-1.40066513 733.51758336 5.09493312 737.44967381 11.59375 741.37890625 C20.74308938 746.91368218 29.86948255 752.48171453 38.93798828 758.1484375 C43.1624294 760.78013785 47.40931983 763.3521674 51.72265625 765.8359375 C68.19680738 775.35463999 79.46978024 785.9759951 90.53125 801.56640625 C95.50948878 808.54413955 95.50948878 808.54413955 102.90625 812.50390625 C107.05736343 811.25857222 109.13456679 808.33491696 111.40625 804.75390625 C117.41087256 791.14497403 116.01997194 777.542404 111.40625 763.75390625 C108.07893434 755.33717582 103.38738921 748.49668865 97.40625 741.75390625 C96.82101562 741.03976562 96.23578125 740.325625 95.6328125 739.58984375 C88.65773415 731.76067417 79.3732363 726.90065818 70.46582031 721.58984375 C66.17244647 719.01354537 61.91728585 716.3768716 57.65942383 713.74243164 C45.63855147 706.30650286 33.55052403 698.98631096 21.40625 691.75390625 C27.94735835 688.82870255 34.51140129 685.96002397 41.09375 683.12890625 C42.00447266 682.73445312 42.91519531 682.34 43.85351562 681.93359375 C45.60403972 681.18100823 47.36053637 680.44211782 49.12353516 679.71923828 C51.57209236 678.72106369 51.57209236 678.72106369 54.47265625 677.14453125 C59.42869606 676.48460584 62.65966494 679.42818362 66.65625 682.12890625 C68.53567555 683.34626144 70.41592209 684.56234984 72.296875 685.77734375 C73.28880859 686.42670898 74.28074219 687.07607422 75.30273438 687.74511719 C80.60965768 691.18008926 86.01260413 694.45750131 91.40625 697.75390625 C93.61636335 699.11250407 95.82600258 700.47187349 98.03515625 701.83203125 C99.10652832 702.49138672 100.17790039 703.15074219 101.28173828 703.83007812 C113.24090363 711.19358984 125.17847888 718.58760269 137.04394531 726.10131836 C146.4454017 732.05228143 155.88711353 737.93871884 165.32568359 743.83056641 C169.35688958 746.34743443 173.38689261 748.8662242 177.41674805 751.38525391 C179.41419677 752.63380209 181.41175587 753.88217372 183.40942383 755.13037109 C188.38667023 758.2403918 193.36262763 761.35243763 198.3359375 764.46875 C209.7412099 771.61205219 221.17656598 778.70336554 232.64648438 785.74243164 C241.41291341 791.12754266 250.13928882 796.57389499 258.84375 802.05859375 C259.77960937 802.64640625 260.71546875 803.23421875 261.6796875 803.83984375 C262.49872559 804.35595215 263.31776367 804.87206055 264.16162109 805.40380859 C271.0709731 809.55964029 277.51093997 809.65255942 285.40625 808.75390625 C292.00245738 806.44183356 296.20325005 802.65398089 299.56640625 796.5859375 C302.47272761 790.24610161 302.84284265 781.85753637 300.53515625 775.265625 C295.91022267 767.45631093 288.1279891 762.74613272 280.46875 758.31640625 C278.67717953 757.26115924 276.88686746 756.20377355 275.09765625 755.14453125 C274.16453613 754.59216797 273.23141602 754.03980469 272.27001953 753.47070312 C267.43756453 750.57370197 262.67427509 747.56785237 257.90625 744.56640625 C246.17251092 737.19640723 234.33862439 729.9995127 222.48344421 722.82745361 C216.84724904 719.41743083 211.21971921 715.99326488 205.59375 712.56640625 C204.66062988 711.99825195 203.72750977 711.43009766 202.76611328 710.84472656 C199.05517896 708.58522295 195.34449264 706.32531221 191.63378906 704.06542969 C188.82886697 702.3572725 186.02383229 700.64930036 183.21875 698.94140625 C182.2803125 698.36994873 181.341875 697.79849121 180.375 697.2097168 C175.13575593 694.02036228 169.89378844 690.83555025 164.6484375 687.65625 C153.02940979 680.61301796 141.41915459 673.55617869 129.84375 666.44140625 C128.77858154 665.78672363 127.71341309 665.13204102 126.6159668 664.45751953 C121.59925861 661.3659493 116.59878212 658.25231908 111.62890625 655.0859375 C110.74211182 654.52108643 109.85531738 653.95623535 108.94165039 653.37426758 C107.29605152 652.32257382 105.65313807 651.26666181 104.01342773 650.20581055 C103.29743408 649.74730713 102.58144043 649.28880371 101.84375 648.81640625 C101.22371094 648.41550781 100.60367188 648.01460937 99.96484375 647.6015625 C98.40911968 646.59464893 98.40911968 646.59464893 96.40625 646.75390625 C109.62486213 631.47809289 109.62486213 631.47809289 116.40625 624.75390625 C117.499375 625.44613281 118.5925 626.13835938 119.71875 626.8515625 C130.87099261 633.90766325 142.05049364 640.91916971 153.24609375 647.90625 C157.26287118 650.41333211 161.2758301 652.92633256 165.28515625 655.4453125 C175.94090475 662.13435492 186.64182612 668.74154017 197.40625 675.25390625 C209.15761673 682.36336263 220.82748073 689.59592004 232.45751953 696.90234375 C237.49877427 700.06784101 242.54614599 703.22354648 247.59375 706.37890625 C248.59180664 707.00297363 249.58986328 707.62704102 250.61816406 708.27001953 C257.03734167 712.28121861 263.46754095 716.27414641 269.90625 720.25390625 C282.45670942 728.01133308 294.96082883 735.84260917 307.46777344 743.66992188 C319.69480433 751.32109685 331.93170712 758.95533671 344.203125 766.53515625 C347.86472883 768.79747441 351.51992878 771.06978235 355.171875 773.34765625 C356.12102783 773.93853027 357.07018066 774.5294043 358.0480957 775.13818359 C359.86042757 776.26663755 361.67154108 777.39705152 363.48120117 778.52978516 C372.45641899 784.11095373 378.60078702 786.94277137 389.40625 785.75390625 C396.32973912 783.69676731 401.5634702 778.79256022 405.40625 772.75390625 C408.32486328 766.60945724 408.57066324 758.93742689 406.75390625 752.41015625 C403.00352623 744.04020943 394.90557993 739.6104549 387.28125 735.19140625 C385.49268628 734.13677782 383.70495161 733.08074236 381.91796875 732.0234375 C381.00450684 731.48412598 380.09104492 730.94481445 379.14990234 730.38916016 C374.76325296 727.77465779 370.4286008 725.07813463 366.09375 722.37890625 C354.90987501 715.42907556 343.66133498 708.58761994 332.40625 701.75390625 C328.53062989 699.40075847 324.65553943 697.04674431 320.78125 694.69140625 C319.34084351 693.81597168 319.34084351 693.81597168 317.87133789 692.92285156 C312.54681361 689.68187599 307.24115968 686.41306451 301.95214844 683.11450195 C288.82211053 674.9295265 275.50983165 667.05918689 262.19239807 659.18467712 C255.82616114 655.4170088 249.48473173 651.60843895 243.14434814 647.79748535 C240.50231475 646.21117054 237.85658769 644.63105456 235.2109375 643.05078125 C225.41511018 637.19359972 215.64596891 631.30532765 205.96875 625.25390625 C197.29792054 619.84096041 188.47658496 614.72157839 179.6015625 609.65185547 C169.72452427 603.98923477 159.99942511 598.09182804 150.30444336 592.12402344 C149.18432861 591.43727539 148.06421387 590.75052734 146.91015625 590.04296875 C145.91830322 589.43146973 144.9264502 588.8199707 143.90454102 588.18994141 C141.40493412 586.64312917 141.40493412 586.64312917 138.40625 585.75390625 C138.61306396 585.11364502 138.81987793 584.47338379 139.03295898 583.8137207 C139.97273504 580.89885786 140.90828071 577.98265397 141.84375 575.06640625 C142.16923828 574.05900391 142.49472656 573.05160156 142.83007812 572.01367188 C143.14267578 571.03720703 143.45527344 570.06074219 143.77734375 569.0546875 C144.06536865 568.15919189 144.35339355 567.26369629 144.65014648 566.34106445 C145.38526795 563.82570051 145.93322442 561.33017003 146.40625 558.75390625 C155.46156907 563.87282984 164.40989216 569.13274859 173.28125 574.56640625 C183.81839738 580.99947776 194.40722305 587.3404553 205.03125 593.62890625 C221.41515557 603.32835677 221.41515557 603.32835677 229.40625 608.25390625 C238.22799131 613.6901464 247.14690192 618.96108638 256.06100464 624.24383545 C270.57750496 632.8468186 285.05045833 641.52059506 299.5078125 650.22265625 C309.47505477 656.2184094 319.49019532 662.13218898 329.50830078 668.04248047 C332.4121052 669.75736412 335.31378595 671.47578708 338.21484375 673.1953125 C350.31360513 680.36646552 350.31360513 680.36646552 362.46875 687.44140625 C363.51160156 688.04339844 364.55445313 688.64539063 365.62890625 689.265625 C372.62630238 693.01528453 378.8034083 693.82575423 386.65234375 692.32421875 C392.75022607 690.3985717 397.24914206 686.37203411 400.5078125 680.90625 C403.13125357 674.9360827 403.49853621 667.97266385 401.8671875 661.671875 C399.45467285 655.58756607 395.71787762 651.59923195 390.12890625 648.36328125 C389.07292236 647.74501465 388.01693848 647.12674805 386.92895508 646.48974609 C385.7870874 645.83441895 384.64521973 645.1790918 383.46875 644.50390625 C382.26336042 643.80254906 381.05853703 643.10021798 379.85424805 642.39697266 C377.32559029 640.92213519 374.79390216 639.45270739 372.25976562 637.98730469 C368.50262802 635.81290574 364.75745241 633.61858691 361.015625 631.41796875 C346.80555625 623.06312943 332.56777764 614.755674 318.32568359 606.45556641 C312.34743882 602.97100661 306.37091556 599.48349473 300.39404297 595.99658203 C295.4572467 593.11658382 290.52008849 590.23721068 285.58203125 587.359375 C265.28454863 575.52850313 245.00180592 563.67221966 224.78588867 551.70239258 C219.69166806 548.68830041 214.59004478 545.68720234 209.48046875 542.69921875 C208.87895493 542.34743057 208.2774411 541.9956424 207.65769958 541.63319397 C207.04983109 541.27768967 206.44196259 540.92218536 205.81567383 540.5559082 C193.10672386 533.12289892 180.44483486 525.61882124 167.83203125 518.0234375 C166.93049316 517.48154785 166.02895508 516.9396582 165.10009766 516.38134766 C163.24605393 515.26125925 161.39702943 514.13283416 159.55224609 512.99755859 C158.20187256 512.17118896 158.20187256 512.17118896 156.82421875 511.328125 C156.02137451 510.83272217 155.21853027 510.33731934 154.39135742 509.8269043 C152.48910259 508.59540434 152.48910259 508.59540434 150.40625 508.75390625 C150.4475 507.51382812 150.48875 506.27375 150.53125 504.99609375 C150.53125 499.15781523 149.48892152 493.59950847 148.40625 487.87890625 C148.02909691 485.8402409 147.654 483.80119376 147.28125 481.76171875 C147.11367188 480.8711377 146.94609375 479.98055664 146.7734375 479.06298828 C146.40625 476.75390625 146.40625 476.75390625 146.40625 473.75390625 C146.95748535 474.1099292 147.5087207 474.46595215 148.07666016 474.83276367 C162.00079517 483.80695624 176.09200678 492.41821299 190.40625 500.75390625 C192.30609354 501.8631032 194.20583196 502.97248024 196.10546875 504.08203125 C200.07034978 506.39670764 204.03677924 508.70870675 208.00390625 511.01953125 C214.97892727 515.08476089 221.94279714 519.16890812 228.90625 523.25390625 C238.80925843 529.06267076 248.71596895 534.86494205 258.63818359 540.64086914 C263.67985924 543.57612609 268.71439592 546.52266 273.73828125 549.48828125 C286.47662938 557.03429553 286.47662938 557.03429553 299.46875 564.12890625 C300.47035156 564.65226563 301.47195313 565.175625 302.50390625 565.71484375 C308.25958794 567.77542427 313.59732759 566.89978406 319.1953125 564.85546875 C324.3302051 562.2970947 328.03246098 558.23924463 330.34375 553.00390625 C332.31320005 546.65242985 332.59343313 539.66651288 329.90625 533.50390625 C324.10122313 524.02518532 313.54728342 518.9871171 304.21875 513.56640625 C302.77226805 512.71772827 301.326145 511.8684383 299.88037109 511.01855469 C289.65260161 505.01718961 279.37044168 499.1116121 269.05566406 493.26123047 C241.87354804 477.79658024 214.94414384 461.88813238 188.05615234 445.91943359 C184.75701987 443.96106458 181.45525513 442.00716539 178.1530304 440.05401611 C175.27348876 438.35059498 172.39482429 436.64569479 169.51626587 434.94061279 C168.13330442 434.12184905 166.74999556 433.30367175 165.36630249 432.48614502 C163.42027738 431.33620344 161.47535526 430.18443408 159.53125 429.03125 C158.91945389 428.66847961 158.30765778 428.30570923 157.67732239 427.9319458 C152.86677234 425.06365132 148.15554453 422.05578099 143.48046875 418.97094727 C141.51956939 417.58521759 141.51956939 417.58521759 139.40625 417.75390625 C139.49037 401.53271077 139.58558312 385.31162343 139.69377708 369.09057236 C139.74376563 361.55779777 139.79020934 354.02503333 139.828125 346.4921875 C139.86120557 339.92177423 139.9011237 333.35144296 139.94904006 326.78112054 C139.97414652 323.30653553 139.99597324 319.8320038 140.00959396 316.35735321 C140.02497818 312.46567638 140.05563728 308.57419631 140.08740234 304.68261719 C140.09064262 302.98004257 140.09064262 302.98004257 140.09394836 301.24307251 C140.19197508 291.78873356 140.86707191 282.22978096 144.78125 273.50390625 C145.4309375 272.02277344 145.4309375 272.02277344 146.09375 270.51171875 C147.24944962 268.08337371 148.4902747 265.73672919 149.78125 263.37890625 C151.55173248 259.4293684 151.81832573 257.80185666 150.40625 253.75390625 C148.59283632 251.19307206 147.61350584 250.78950679 144.47265625 250.25 C131.49496683 250.03298178 123.02611571 254.51377683 113.71020508 263.30200195 C103.02081668 273.87468239 93.60773722 287.39930314 93.16574097 302.94287109 C93.16003439 304.45019119 93.16505124 305.95757925 93.17919922 307.46484375 C93.17876114 308.71017632 93.17876114 308.71017632 93.17831421 309.98066711 C93.17969615 312.69685698 93.19520329 315.41276491 93.2109375 318.12890625 C93.21467168 320.02319184 93.21751674 321.91747936 93.21951294 323.81176758 C93.22711754 328.77656467 93.24673854 333.74124314 93.2689209 338.70599365 C93.28944794 343.78054195 93.29852928 348.85510957 93.30859375 353.9296875 C93.32998762 363.87114562 93.36408495 373.81251604 93.40625 383.75390625 C92.92269043 383.38104492 92.43913086 383.00818359 91.94091797 382.62402344 C89.72256446 380.91531318 87.50192935 379.20959253 85.28125 377.50390625 C84.52070312 376.91738281 83.76015625 376.33085937 82.9765625 375.7265625 C76.27946688 369.76242479 76.27946688 369.76242479 68.40625 366.75390625 C68.40809359 365.56046097 68.40993717 364.36701569 68.41183662 363.1374054 C68.45516872 334.79626522 68.48813925 306.45512591 68.50838066 278.11395991 C68.51088202 274.62431306 68.51347067 271.13466628 68.51611328 267.64501953 C68.5166379 266.95030477 68.51716252 266.25559001 68.51770304 265.53982329 C68.52640148 254.29669417 68.54216837 243.05358553 68.56055559 231.81046855 C68.57927025 220.27074345 68.59022037 208.73103275 68.59442699 197.19129276 C68.59703484 190.71097364 68.60316645 184.23070097 68.61771011 177.75039673 C68.6312894 171.65034853 68.6354719 165.5503659 68.63246536 159.45030403 C68.63301537 157.21220608 68.63699071 154.97410592 68.64466095 152.73602104 C68.65462749 149.67777486 68.65221252 146.61977546 68.64675903 143.56152344 C68.65258472 142.67823522 68.6584104 141.79494699 68.66441262 140.88489246 C68.62201831 132.0745063 67.22371212 124.6534176 60.80078125 118.12109375 C54.86960702 112.70055041 49.28823752 111.14218951 41.28515625 111.31640625 C34.44359532 112.35610072 29.17214643 116.39260511 24.90625 121.69140625 C20.48445066 127.74567221 20.11322752 134.38935181 20.16574097 141.60606384 C20.16403212 142.47367436 20.16232327 143.34128489 20.16056263 144.23518664 C20.15728007 147.12945118 20.16825108 150.02348158 20.17919922 152.91772461 C20.1797636 154.99754837 20.17944625 157.07737252 20.17831421 159.15719604 C20.17774074 164.79506647 20.18949414 170.43285168 20.20346212 176.07070231 C20.21597045 181.96571466 20.21714007 187.86072899 20.21951294 193.75575256 C20.2257274 204.91510957 20.24213779 216.07442735 20.26221192 227.23376709 C20.28457195 239.93984907 20.29556462 252.64593293 20.30560279 265.35202968 C20.32650401 291.48601027 20.36167937 317.61995606 20.40625 343.75390625 C19.87257813 343.60244141 19.33890625 343.45097656 18.7890625 343.29492188 C16.33099859 342.60385719 13.8687937 341.92882564 11.40625 341.25390625 C10.14748047 340.89619141 10.14748047 340.89619141 8.86328125 340.53125 C3.53377518 339.08525998 -1.07289367 338.49831105 -6.59375 338.75390625 C-6.59223112 338.13772434 -6.59071224 337.52154244 -6.58914733 336.88668835 C-6.49960174 300.35286737 -6.43098696 263.81906264 -6.38948868 227.28515435 C-6.38448596 222.89680844 -6.37930866 218.50846276 -6.37402344 214.12011719 C-6.3729742 213.24649016 -6.37192495 212.37286314 -6.37084392 211.47276257 C-6.35344681 197.333957 -6.32191294 183.1952166 -6.28513882 169.05644967 C-6.24771008 154.5447862 -6.22551006 140.03315682 -6.21739602 125.52144706 C-6.21191225 116.56958665 -6.19460296 107.61791045 -6.16208413 98.66610675 C-6.14091238 92.52444117 -6.13455597 86.3828706 -6.13974449 80.2411712 C-6.14230215 76.69964005 -6.13842895 73.15843044 -6.1169281 69.61695671 C-6.09375097 65.7711416 -6.10182423 61.92574168 -6.11273193 58.0798645 C-6.10108057 56.96894507 -6.0894292 55.85802563 -6.07742476 54.71344197 C-6.14877984 45.39069113 -8.34318295 37.11464849 -14.921875 30.2265625 C-21.10600603 24.77932559 -27.09118514 24.04709327 -35.25 24.30859375 C-42.48380416 25.27197421 -46.71569837 29.39748383 -51.26953125 34.8125 Z " transform="translate(543.59375,63.24609375)" style="fill: #505050;"/><path d="M0 0 C13.64075951 12.00713562 21.03442946 26.2031038 25.27709961 43.60595703 C30.78961925 66.19328243 41.70985566 86.1844308 62.0625 98.6875 C76.70633422 107.06374205 91.49764671 111.06886451 108.0625 113.6875 C94.29414795 129.66467858 63.85398518 136.12268783 43.75 138.4375 C41.85586474 138.55317238 39.95931271 138.63066666 38.0625 138.6875 C36.99104736 138.72617187 36.99104736 138.72617187 35.89794922 138.765625 C6.37195921 139.71368007 -25.58285523 134.14970397 -48.9375 114.6875 C-46.52495676 112.27495676 -44.82435821 111.94602449 -41.5625 111 C-25.16341034 105.6909422 -13.87367259 95.76745961 -5.9375 80.6875 C-0.52481307 69.06400876 0.20274534 54.40159825 -3.5625 42.125 C-8.29596907 30.29957378 -15.14071443 20.96748281 -26.91796875 15.4765625 C-37.29966423 11.42027142 -48.10994851 11.02417953 -58.50390625 15.42578125 C-66.83518919 19.74521045 -72.96643073 25.64398214 -75.9375 34.6875 C-76.74520002 42.54848739 -76.98022767 50.22497521 -71.9375 56.6875 C-68.25973343 60.18137824 -65.01405805 62.47119187 -59.9375 63 C-56.49295921 62.64119367 -55.30871149 62.183239 -52.9375 59.6875 C-52.78612211 56.63985543 -52.78612211 56.63985543 -53.375 53.3125 C-54.24774605 47.33384594 -54.24774605 47.33384594 -52.578125 43.85546875 C-50.72132997 41.40184675 -49.87894451 40.5619835 -46.9375 39.6875 C-42.1852844 39.22760817 -39.94050009 39.16671149 -35.6875 41.375 C-29.79901778 46.32667823 -26.40414931 51.68764881 -25.5 59.4375 C-25.84291655 67.11584883 -28.94376405 74.65029594 -34.25 80.1953125 C-42.74763781 87.70942741 -52.47319138 90.3385624 -63.69921875 90.03515625 C-75.17153229 88.8035086 -85.14629367 82.352187 -93.015625 74.15234375 C-101.8028579 62.88253895 -105.21158718 49.81394156 -103.9375 35.6875 C-100.85334356 19.7234857 -93.01556643 6.56278905 -80.203125 -3.44921875 C-54.62539172 -20.48872026 -24.11448989 -18.75945652 0 0 Z " transform="translate(483.9375,584.3125)" style="fill: #984DA6;"/><path d="M0 0 C27.66399889 9.96101208 48.86472952 41.66598035 60.94140625 67.0078125 C72.13987698 91.29741139 74.58208114 114.3824744 74 141 C71.13901106 138.19700408 68.47374261 135.39595527 66 132.25 C55.93203624 120.66855149 41.49379423 114.0488163 26.34765625 112.77734375 C12.79846105 112.33023975 -0.92408071 116.98281639 -10.9375 126.3125 C-19.64078404 135.96601852 -23.69740874 146.52576084 -23.3359375 159.44140625 C-22.44231297 168.90759165 -19.3020689 176.05066127 -12.62109375 182.86328125 C-6.28971862 188.02462581 1.27284617 190.9080116 9.484375 190.41796875 C15.58254139 189.40476409 21.85374104 187.85305799 26.0625 183.0625 C29.82371019 177.11736131 30.46195077 173.85992283 29 167 C25.33134759 164.55423173 23.32799657 164.76392746 19 165 C18.34 165.33 17.68 165.66 17 166 C9.86769231 166.70153846 9.86769231 166.70153846 6.0625 163.625 C2.8407861 159.52463686 2.49199722 157.24936202 3 152 C5.90170898 145.28354431 10.15701926 141.70799144 16.8125 138.75 C26.12266517 136.5593729 33.96537534 138.67055191 42.265625 143.25 C50.22545818 148.59706351 55.06784866 157.72247991 57 167 C58.49390942 178.15821232 54.14989712 188.36336653 47.96875 197.46484375 C39.35592938 208.5555592 26.79075052 214.93654606 13 217 C-2.87477057 218.29589964 -16.301984 214.36447011 -29.01953125 204.70703125 C-41.00694828 194.39227706 -48.84083878 180.31575345 -50.22290039 164.43945312 C-51.27620951 139.85162386 -43.94504255 120.38219892 -27.26171875 101.9375 C-25.39374961 99.90239507 -23.5128402 97.87942833 -21.6328125 95.85546875 C-2.09385209 74.66410368 4.18733137 51.61288382 3.41015625 23.2265625 C3.04827827 15.27761894 2.09275442 7.68588974 0 0 Z " transform="translate(584,455)" style="fill: #B797D0;"/><path d="M0 0 C9.49470201 7.69789585 14.21931382 18.65794145 18 30 C19.49555022 48.06418378 17.48092093 65.03891238 5.89453125 79.65625 C3.67365302 82.19439655 1.38037867 84.61142725 -1 87 C-1.61488281 87.63808594 -2.22976563 88.27617188 -2.86328125 88.93359375 C-16.48260717 102.02797777 -35.28071043 105.61741311 -53.46875 105.62670898 C-63.42805303 105.37219661 -72.75508015 103.37103904 -82.43505859 101.15722656 C-106.94796502 95.71284702 -130.74102807 99.12490301 -152.125 112.6875 C-160.81835554 118.7658756 -169.01982527 125.81679294 -175.01171875 134.63671875 C-175.50091797 135.31154297 -175.50091797 135.31154297 -176 136 C-176.33 136 -176.66 136 -177 136 C-178.30311687 100.57452669 -165.11799801 66.50769473 -141.1875 40.4375 C-137.85672288 36.89024697 -134.45082412 33.43019139 -131 30 C-130.47559326 29.4519873 -129.95118652 28.90397461 -129.41088867 28.33935547 C-125.25828094 24.04850396 -120.89917862 20.46817248 -116 17.0625 C-115.27031006 16.55178955 -114.54062012 16.0410791 -113.78881836 15.51489258 C-108.85926267 12.12758588 -103.8260221 9.02781326 -98.5625 6.1875 C-97.93021484 5.84404541 -97.29792969 5.50059082 -96.64648438 5.14672852 C-95.13175797 4.36153954 -93.56885108 3.67054015 -92 3 C-91.01 3.495 -91.01 3.495 -90 4 C-90.28875 4.68320312 -90.5775 5.36640625 -90.875 6.0703125 C-95.83590966 19.54056025 -96.24270537 35.73522688 -91.28515625 49.29296875 C-89.5976296 52.84754616 -87.61944813 56.04225948 -85.26953125 59.1953125 C-84 61 -84 61 -83 64 C-81.13982332 65.05537095 -81.13982332 65.05537095 -79 66 C-77.73102861 66.9330672 -76.48142515 67.892913 -75.25 68.875 C-64.27853799 77.20518412 -52.55385823 79.3406388 -39 78 C-28.11732539 75.81352656 -19.28463758 70.19384667 -13 61 C-8.36675192 52.39962577 -6.12176394 42.8803777 -8.75390625 33.23828125 C-11.79937169 25.2484131 -15.36731269 20.81634366 -23 17 C-28.13734128 15.07349702 -33.33423443 15.4475735 -38.3125 17.625 C-41.44690279 19.31042355 -41.92765762 19.84325818 -43.5 23.25 C-43.665 24.1575 -43.83 25.065 -44 26 C-43.04287109 26.83144531 -43.04287109 26.83144531 -42.06640625 27.6796875 C-40.82697266 28.76636719 -40.82697266 28.76636719 -39.5625 29.875 C-38.73878906 30.59429687 -37.91507813 31.31359375 -37.06640625 32.0546875 C-34.56130969 34.41298256 -34.07537258 35.33672127 -33.6875 38.75 C-34.0851886 42.88596145 -35.37640184 44.80913737 -38 48 C-43.43463314 51.9017879 -48.51677945 51.99678486 -55 51 C-61.74820229 48.23799217 -65.90087924 43.4887841 -69 37 C-71.68529918 28.94410245 -71.09574702 19.12999978 -67.5 11.5 C-61.35555483 0.98901625 -53.16900217 -4.52980771 -42 -9 C-26.96817473 -12.310466 -12.37878848 -9.07632018 0 0 Z " transform="translate(545,447)" style="fill: #6C258D;"/><path d="M0 0 C0.33 0 0.66 0 1 0 C1.97383651 5.69081105 2.13864351 11.18650671 2.12025452 16.95310974 C2.12153615 18.43216005 2.12153615 18.43216005 2.12284368 19.94109017 C2.1244872 23.23605467 2.11899558 26.53096795 2.11352539 29.82592773 C2.11324325 32.19146219 2.11340178 34.55699673 2.1139679 36.92253113 C2.11425482 43.33927501 2.10837499 49.7560002 2.10139394 56.17273974 C2.09529812 62.20081185 2.09477057 68.22888602 2.09374207 74.25696064 C2.09155553 86.19369017 2.08490623 98.13041286 2.07543945 110.06713867 C2.06625504 121.65991176 2.05917924 133.25268299 2.05493164 144.84545898 C2.05466892 145.56049886 2.05440619 146.27553873 2.05413551 147.01224648 C2.05283043 150.59952913 2.05156674 154.18681179 2.05032361 157.77409446 C2.03996338 187.51606756 2.02228135 217.25803334 2 247 C3.0725 246.649375 4.145 246.29875 5.25 245.9375 C9 245 9 245 13 246 C8.71 246.99 4.42 247.98 0 249 C0 166.83 0 84.66 0 0 Z " transform="translate(460,158)" style="fill: #404040;"/><path d="M0 0 C3.0293195 3.0293195 2.95925022 5.95838567 3.12304783 10.14525318 C3.12212604 11.33528792 3.12120424 12.52532267 3.12025452 13.75141907 C3.12110894 14.41722667 3.12196337 15.08303428 3.12284368 15.76901788 C3.12448625 17.99227982 3.11899721 20.21546574 3.11352539 22.4387207 C3.11324323 24.03549701 3.11340182 25.63227345 3.1139679 27.22904968 C3.11425474 31.55920539 3.10837623 35.88933339 3.10139394 40.21948266 C3.09514162 44.74651464 3.09455511 49.27354726 3.09336853 53.80058289 C3.09026076 62.37108658 3.08205483 70.94157752 3.07201904 79.5120756 C3.06084071 89.27016618 3.05534311 99.02825737 3.05032361 108.78635275 C3.03987176 128.85757562 3.02228303 148.92878701 3 169 C3.66 169.33 4.32 169.66 5 170 C3.68 170.99 2.36 171.98 1 173 C0.67 115.91 0.34 58.82 0 0 Z " transform="translate(388,275)" style="fill: #4A4A4A;"/><path d="M0 0 C0.33 0 0.66 0 1 0 C1.33 93.72 1.66 187.44 2 284 C0.68 284 -0.64 284 -2 284 C-2 283.01 -2 282.02 -2 281 C-1.34 281 -0.68 281 0 281 C0 188.27 0 95.54 0 0 Z " transform="translate(486,118)" style="fill: #5A5A5A;"/><path d="M0 0 C-1.423125 0.8971875 -1.423125 0.8971875 -2.875 1.8125 C-6.13964197 3.81562526 -6.13964197 3.81562526 -8 7 C-6.02 8.32 -4.04 9.64 -2 11 C-2.99 11.495 -2.99 11.495 -4 12 C-6.6015625 10.56640625 -6.6015625 10.56640625 -9.625 8.5625 C-10.62789062 7.90378906 -11.63078125 7.24507812 -12.6640625 6.56640625 C-13.43492187 6.04949219 -14.20578125 5.53257812 -15 5 C-12.23124172 2.74959373 -9.76303909 1.36046097 -6.375 0.25 C-5.59898437 -0.01296875 -4.82296875 -0.2759375 -4.0234375 -0.546875 C-2 -1 -2 -1 0 0 Z " transform="translate(579,750)" style="fill: #404040;"/><path d="M0 0 C0.66 0.33 1.32 0.66 2 1 C1.2575 1.680625 0.515 2.36125 -0.25 3.0625 C-3.24924532 6.04480043 -4.97946574 9.29568718 -7 13 C-8.625 15.4375 -8.625 15.4375 -10 17 C-10.66 17 -11.32 17 -12 17 C-12.66 18.98 -13.32 20.96 -14 23 C-15 20 -15 20 -14.1015625 17.87109375 C-10.07117437 11.22841702 -5.36840677 5.60700262 0 0 Z " transform="translate(400,584)" style="fill: #883D96;"/><path d="M0 0 C0.66 0.33 1.32 0.66 2 1 C1.57742724 2.4835001 1.13643678 3.96176424 0.6875 5.4375 C0.32205078 6.67306641 0.32205078 6.67306641 -0.05078125 7.93359375 C-0.36402344 8.61550781 -0.67726563 9.29742187 -1 10 C-1.99 10.33 -2.98 10.66 -4 11 C-4 9.68 -4 8.36 -4 7 C-6.31 7 -8.62 7 -11 7 C-8.84658594 4.65082102 -6.78332063 3.17556996 -3.9375 1.75 C-3.24527344 1.39421875 -2.55304688 1.0384375 -1.83984375 0.671875 C-1.23269531 0.45015625 -0.62554687 0.2284375 0 0 Z " transform="translate(453,450)" style="fill: #602081;"/><path d="M0 0 C1 3 1 3 1 5 C-0.6956168 6.19690598 -2.39380277 7.39047038 -4.109375 8.55859375 C-6.91738711 10.6994129 -8.85575863 13.20598852 -11 16 C-11.66 15.67 -12.32 15.34 -13 15 C-12.54109375 14.49210938 -12.0821875 13.98421875 -11.609375 13.4609375 C-7.38068541 8.71941145 -7.38068541 8.71941145 -3.6875 3.5625 C-2 1 -2 1 0 0 Z " transform="translate(478,668)" style="fill: #8D419C;"/><path d="M0 0 C0.33 0 0.66 0 1 0 C1.24878997 2.43694274 1.47463404 4.87238389 1.6875 7.3125 C1.79674805 8.34793945 1.79674805 8.34793945 1.90820312 9.40429688 C2.33135078 14.55674183 2.33135078 14.55674183 0.51953125 16.98046875 C0.01808594 17.31691406 -0.48335938 17.65335938 -1 18 C-1.02690844 15.37493198 -1.04679404 12.75013827 -1.0625 10.125 C-1.07087891 9.37863281 -1.07925781 8.63226562 -1.08789062 7.86328125 C-1.11328125 2.2265625 -1.11328125 2.2265625 0 0 Z " transform="translate(369,565)" style="fill: #6D3789;"/><path d="M0 0 C6.93 0.33 13.86 0.66 21 1 C21 1.33 21 1.66 21 2 C14.4 2.33 7.8 2.66 1 3 C0.67 2.01 0.34 1.02 0 0 Z " transform="translate(480,549)" style="fill: #7A2C9C;"/><path d="M0 0 C0.66 0.33 1.32 0.66 2 1 C0.59070303 4.47132095 -0.90605083 5.88093274 -4.125 7.75 C-4.84945313 8.17796875 -5.57390625 8.6059375 -6.3203125 9.046875 C-6.87460937 9.36140625 -7.42890625 9.6759375 -8 10 C-6.07712966 5.70621187 -3.37521131 3.22846299 0 0 Z " transform="translate(489,445)" style="fill: #59187B;"/><path d="M0 0 C3.465 1.98 3.465 1.98 7 4 C5 5 5 5 2 4 C1.67 4.99 1.34 5.98 1 7 C0.34 7 -0.32 7 -1 7 C-1.33 7.99 -1.66 8.98 -2 10 C-1.85950482 8.52031676 -1.71245174 7.04125484 -1.5625 5.5625 C-1.48128906 4.73878906 -1.40007813 3.91507813 -1.31640625 3.06640625 C-1 1 -1 1 0 0 Z " transform="translate(690,621)" style="fill: #3F3F3F;"/><path d="M0 0 C0 3 0 3 -2.25 5.5 C-4.43541108 7.48673735 -6.58854412 9.30304957 -9 11 C-9.66 10.67 -10.32 10.34 -11 10 C-9.54474941 8.51780033 -8.085701 7.03932861 -6.625 5.5625 C-5.81289063 4.73878906 -5.00078125 3.91507813 -4.1640625 3.06640625 C-2 1 -2 1 0 0 Z " transform="translate(336,238)" style="fill: #3A3B3A;"/><path d="M0 0 C3.63 0 7.26 0 11 0 C11 0.66 11 1.32 11 2 C11.99 2.33 12.98 2.66 14 3 C8.80790596 3.21192221 4.873261 2.5912689 0 1 C0 0.67 0 0.34 0 0 Z " transform="translate(469,548)" style="fill: #561975;"/><path d="M0 0 C0.66 0.33 1.32 0.66 2 1 C-1.30015998 5.13937592 -4.17324411 8.58662205 -9 11 C-7.59155282 7.78475695 -5.89655214 5.67816132 -3.375 3.25 C-2.74335938 2.63640625 -2.11171875 2.0228125 -1.4609375 1.390625 C-0.97882813 0.93171875 -0.49671875 0.4728125 0 0 Z " transform="translate(180,527)" style="fill: #393A39;"/><path d="M0 0 C3.465 1.98 3.465 1.98 7 4 C5 5 5 5 1.875 4.0625 C0.92625 3.711875 -0.0225 3.36125 -1 3 C-1.66 4.32 -2.32 5.64 -3 7 C-3.66 6.67 -4.32 6.34 -5 6 C-3.35 4.02 -1.7 2.04 0 0 Z " transform="translate(659,687)" style="fill: #3C3C3C;"/><path d="M0 0 C0.33 0.99 0.66 1.98 1 3 C-0.65 4.65 -2.3 6.3 -4 8 C-4.99 7.67 -5.98 7.34 -7 7 C-4.66666667 4.66666667 -2.33333333 2.33333333 0 0 Z " transform="translate(947,838)" style="fill: #424242;"/><path d="M0 0 C0.598125 0.763125 1.19625 1.52625 1.8125 2.3125 C3.46959332 4.3483575 5.10297674 6.1978279 7 8 C4.69 7.34 2.38 6.68 0 6 C0 4.02 0 2.04 0 0 Z " transform="translate(499,470)" style="fill: #541374;"/><path d="M0 0 C4.875 1.75 4.875 1.75 6 4 C5.01 4 4.02 4 3 4 C2.67 5.32 2.34 6.64 2 8 C1.34 5.36 0.68 2.72 0 0 Z " transform="translate(584,455)" style="fill: #AA8CC1;"/></svg>